<?xml version="1.0" encoding="UTF-8" standalone="no"?>
<svg viewBox="-3.5 0 48 48" xmlns="http://www.w3.org/2000/svg">
    <title>Paypal-color</title>
    <g stroke="none" stroke-width="1" fill="none" fill-rule="evenodd">
        <g fill="#022B87">
            <path d="M34.91167,3.619443 C32.67088,1.085983 28.621734,0 23.440097,0 L8.404732,0 C7.344818,0 6.443663,0.764988 6.277343,1.801472 L0.016136,41.193856 C-0.107849,41.970844 0.498465,42.674333 1.292267,42.674333 L10.574458,42.674333 L12.905967,28.004562 L12.833391,28.463555 C12.999712,27.427071 13.894818,26.662083 14.95322,26.662083 L19.363735,26.662083 C28.030541,26.662083 34.814901,23.170138 36.797138,13.069296 C36.856106,12.7693 36.951363,12.194809 36.951363,12.194809 C37.513828,8.456868 36.946827,5.920407 34.91167,3.619443 Z M39.301017,14.10803 C37.144899,24.052874 30.27133,29.316292 19.363735,29.316292 L15.408334,29.316292 L12.458414,48 L18.873846,48 C19.800704,48 20.588458,47.33101 20.733611,46.423525 L20.809211,46.027531 L22.284927,36.754676 L22.380183,36.243184 C22.523823,35.335698 23.313089,34.666708 24.238435,34.666708 L25.410238,34.666708 C32.989913,34.666708 38.92604,31.611256 40.660308,22.776394 C41.35583,19.23045 41.021677,16.257496 39.301017,14.10803 Z"/>
        </g>
    </g>
</svg>
