<?xml version="1.0" encoding="UTF-8" standalone="no"?>
<!-- Uploaded to: SVG Repo, www.svgrepo.com, Generator: SVG Repo Mixer Tools -->
<svg width="800px" height="800px" viewBox="-3.5 0 48 48" version="1.1" xmlns="http://www.w3.org/2000/svg" xmlns:xlink="http://www.w3.org/1999/xlink">
    
    <title>Paypal-color</title>
    <desc>Created with Sketch.</desc>
    <defs>

</defs>
    <g id="Icons" stroke="none" stroke-width="1" fill="none" fill-rule="evenodd">
        <g id="Color-" transform="translate(-804.000000, -660.000000)" fill="#022B87">
            <path d="M838.91167,663.619443 C836.67088,661.085983 832.621734,660 827.440097,660 L812.404732,660 C811.344818,660 810.443663,660.764988 810.277343,661.801472 L804.016136,701.193856 C803.892151,701.970844 804.498465,702.674333 805.292267,702.674333 L814.574458,702.674333 L816.905967,688.004562 L816.833391,688.463555 C816.999712,687.427071 817.894818,686.662083 818.95322,686.662083 L823.363735,686.662083 C832.030541,686.662083 838.814901,683.170138 840.797138,673.069296 C840.856106,672.7693 840.951363,672.194809 840.951363,672.194809 C841.513828,668.456868 840.946827,665.920407 838.91167,663.619443 Z M843.301017,674.10803 C841.144899,684.052874 834.27133,689.316292 823.363735,689.316292 L819.408334,689.316292 L816.458414,708 L822.873846,708 C823.800704,708 824.588458,707.33101 824.733611,706.423525 L824.809211,706.027531 L826.284927,696.754676 L826.380183,696.243184 C826.523823,695.335698 827.313089,694.666708 828.238435,694.666708 L829.410238,694.666708 C836.989913,694.666708 842.92604,691.611256 844.660308,682.776394 C845.35583,679.23045 845.021677,676.257496 843.301017,674.10803 Z" id="Paypal">

</path>
        </g>
    </g>
</svg>